<mxfile host="65bd71144e" pages="3" scale="2" border="15">
    <diagram id="w8umIVpwV_LAg6aVeawN" name="forwardRef">
        <mxGraphModel dx="809" dy="513" grid="1" gridSize="10" guides="1" tooltips="1" connect="1" arrows="1" fold="1" page="1" pageScale="1" pageWidth="827" pageHeight="1169" math="0" shadow="0">
            <root>
                <mxCell id="0"/>
                <mxCell id="1" parent="0"/>
                <mxCell id="-rpuYlQJuh6bBSyZf9yu-13" style="edgeStyle=none;html=1;exitX=0.5;exitY=1;exitDx=0;exitDy=0;fontSize=10;" edge="1" parent="1" source="-rpuYlQJuh6bBSyZf9yu-6" target="PJTTOsYr8Ak02sW-gof1-6">
                    <mxGeometry relative="1" as="geometry"/>
                </mxCell>
                <mxCell id="-rpuYlQJuh6bBSyZf9yu-6" value="" style="group;movable=1;resizable=1;rotatable=1;deletable=1;editable=1;connectable=1;" vertex="1" connectable="0" parent="1">
                    <mxGeometry x="240" y="280" width="160" height="60" as="geometry"/>
                </mxCell>
                <mxCell id="PJTTOsYr8Ak02sW-gof1-2" value="" style="rounded=0;whiteSpace=wrap;html=1;" vertex="1" parent="-rpuYlQJuh6bBSyZf9yu-6">
                    <mxGeometry width="160" height="60" as="geometry"/>
                </mxCell>
                <mxCell id="-rpuYlQJuh6bBSyZf9yu-9" value="&amp;lt;Child ref={parentRef} /&amp;gt;" style="text;html=1;strokeColor=none;fillColor=none;align=center;verticalAlign=middle;whiteSpace=wrap;rounded=0;fontSize=10;" vertex="1" parent="-rpuYlQJuh6bBSyZf9yu-6">
                    <mxGeometry x="20" y="30" width="130" height="22.5" as="geometry"/>
                </mxCell>
                <mxCell id="-rpuYlQJuh6bBSyZf9yu-7" value="" style="group" vertex="1" connectable="0" parent="-rpuYlQJuh6bBSyZf9yu-6">
                    <mxGeometry x="45" y="7.5" width="70" height="22.5" as="geometry"/>
                </mxCell>
                <mxCell id="-rpuYlQJuh6bBSyZf9yu-4" value="parentRef" style="text;html=1;strokeColor=none;fillColor=none;align=center;verticalAlign=middle;whiteSpace=wrap;rounded=0;fontSize=10;" vertex="1" parent="-rpuYlQJuh6bBSyZf9yu-7">
                    <mxGeometry x="6.363636363636363" width="63.63636363636363" height="22.5" as="geometry"/>
                </mxCell>
                <mxCell id="-rpuYlQJuh6bBSyZf9yu-5" value="" style="verticalLabelPosition=bottom;html=1;verticalAlign=top;strokeWidth=1;align=center;outlineConnect=0;dashed=0;outlineConnect=0;shape=mxgraph.aws3d.reference2;fillColor=#000000;strokeColor=none;aspect=fixed;fontSize=10;" vertex="1" parent="-rpuYlQJuh6bBSyZf9yu-7">
                    <mxGeometry x="2" y="8.530000000000015" width="10.227272727272727" height="6.763636363636365" as="geometry"/>
                </mxCell>
                <mxCell id="PJTTOsYr8Ak02sW-gof1-6" value="" style="rounded=0;whiteSpace=wrap;html=1;dashed=1;dashPattern=1 1;" vertex="1" parent="1">
                    <mxGeometry x="230" y="395" width="180" height="85" as="geometry"/>
                </mxCell>
                <mxCell id="PJTTOsYr8Ak02sW-gof1-3" value="" style="rounded=0;whiteSpace=wrap;html=1;" vertex="1" parent="1">
                    <mxGeometry x="240" y="420" width="160" height="50" as="geometry"/>
                </mxCell>
                <mxCell id="-rpuYlQJuh6bBSyZf9yu-1" value="forwardRef()" style="text;html=1;strokeColor=none;fillColor=none;align=center;verticalAlign=middle;whiteSpace=wrap;rounded=0;fontSize=10;" vertex="1" parent="1">
                    <mxGeometry x="228" y="390" width="71" height="30" as="geometry"/>
                </mxCell>
                <mxCell id="-rpuYlQJuh6bBSyZf9yu-2" value="&amp;lt;div ref={ref} /&amp;gt;" style="text;html=1;strokeColor=none;fillColor=none;align=center;verticalAlign=middle;whiteSpace=wrap;rounded=0;fontSize=10;" vertex="1" parent="1">
                    <mxGeometry x="282.5" y="430" width="75" height="30" as="geometry"/>
                </mxCell>
                <mxCell id="-rpuYlQJuh6bBSyZf9yu-14" value="" style="edgeStyle=segmentEdgeStyle;endArrow=classic;html=1;curved=0;rounded=0;endSize=8;startSize=8;fontSize=10;exitX=1;exitY=0.5;exitDx=0;exitDy=0;fillColor=#ffe6cc;strokeColor=#d79b00;" edge="1" parent="1" source="-rpuYlQJuh6bBSyZf9yu-4" target="-rpuYlQJuh6bBSyZf9yu-2">
                    <mxGeometry width="50" height="50" relative="1" as="geometry">
                        <mxPoint x="414" y="300" as="sourcePoint"/>
                        <mxPoint x="460" y="450" as="targetPoint"/>
                        <Array as="points">
                            <mxPoint x="430" y="299"/>
                            <mxPoint x="430" y="445"/>
                        </Array>
                    </mxGeometry>
                </mxCell>
                <mxCell id="-rpuYlQJuh6bBSyZf9yu-26" value="&lt;font color=&quot;#cc6600&quot;&gt;forwarded&lt;/font&gt;" style="edgeLabel;html=1;align=center;verticalAlign=middle;resizable=0;points=[];fontSize=10;" vertex="1" connectable="0" parent="-rpuYlQJuh6bBSyZf9yu-14">
                    <mxGeometry x="-0.0443" relative="1" as="geometry">
                        <mxPoint as="offset"/>
                    </mxGeometry>
                </mxCell>
                <mxCell id="-rpuYlQJuh6bBSyZf9yu-24" value="&amp;lt;Parent /&amp;gt;" style="text;html=1;align=center;verticalAlign=middle;whiteSpace=wrap;rounded=0;strokeWidth=1;fontSize=10;labelBackgroundColor=default;" vertex="1" parent="1">
                    <mxGeometry x="239" y="269" width="60" height="20" as="geometry"/>
                </mxCell>
                <mxCell id="-rpuYlQJuh6bBSyZf9yu-25" value="&amp;lt;Child /&amp;gt;" style="text;html=1;align=center;verticalAlign=middle;whiteSpace=wrap;rounded=0;strokeWidth=1;fontSize=10;labelBackgroundColor=default;" vertex="1" parent="1">
                    <mxGeometry x="235" y="409" width="60" height="20" as="geometry"/>
                </mxCell>
            </root>
        </mxGraphModel>
    </diagram>
    <diagram name="useImperativeHandle" id="o8iGz39V3WUpfnhEcCWB">
        <mxGraphModel dx="472" dy="299" grid="1" gridSize="10" guides="1" tooltips="1" connect="1" arrows="1" fold="1" page="1" pageScale="1" pageWidth="827" pageHeight="1169" math="0" shadow="0">
            <root>
                <mxCell id="W2QS1BdF9j7jTlORDMmj-0"/>
                <mxCell id="W2QS1BdF9j7jTlORDMmj-1" parent="W2QS1BdF9j7jTlORDMmj-0"/>
                <mxCell id="W2QS1BdF9j7jTlORDMmj-2" style="edgeStyle=none;html=1;exitX=0.5;exitY=1;exitDx=0;exitDy=0;fontSize=10;" edge="1" parent="W2QS1BdF9j7jTlORDMmj-1" source="W2QS1BdF9j7jTlORDMmj-3" target="W2QS1BdF9j7jTlORDMmj-9">
                    <mxGeometry relative="1" as="geometry"/>
                </mxCell>
                <mxCell id="W2QS1BdF9j7jTlORDMmj-3" value="" style="group;movable=1;resizable=1;rotatable=1;deletable=1;editable=1;connectable=1;" vertex="1" connectable="0" parent="W2QS1BdF9j7jTlORDMmj-1">
                    <mxGeometry x="240" y="280" width="160" height="60" as="geometry"/>
                </mxCell>
                <mxCell id="W2QS1BdF9j7jTlORDMmj-4" value="" style="rounded=0;whiteSpace=wrap;html=1;" vertex="1" parent="W2QS1BdF9j7jTlORDMmj-3">
                    <mxGeometry width="160" height="60" as="geometry"/>
                </mxCell>
                <mxCell id="W2QS1BdF9j7jTlORDMmj-5" value="&amp;lt;Child ref={parentRef} /&amp;gt;" style="text;html=1;strokeColor=none;fillColor=none;align=center;verticalAlign=middle;whiteSpace=wrap;rounded=0;fontSize=10;" vertex="1" parent="W2QS1BdF9j7jTlORDMmj-3">
                    <mxGeometry x="20" y="30" width="130" height="22.5" as="geometry"/>
                </mxCell>
                <mxCell id="W2QS1BdF9j7jTlORDMmj-6" value="" style="group" vertex="1" connectable="0" parent="W2QS1BdF9j7jTlORDMmj-3">
                    <mxGeometry x="45" y="7.5" width="70" height="22.5" as="geometry"/>
                </mxCell>
                <mxCell id="W2QS1BdF9j7jTlORDMmj-7" value="parentRef" style="text;html=1;strokeColor=none;fillColor=none;align=center;verticalAlign=middle;whiteSpace=wrap;rounded=0;fontSize=10;" vertex="1" parent="W2QS1BdF9j7jTlORDMmj-6">
                    <mxGeometry x="6.363636363636363" width="63.63636363636363" height="22.5" as="geometry"/>
                </mxCell>
                <mxCell id="W2QS1BdF9j7jTlORDMmj-8" value="" style="verticalLabelPosition=bottom;html=1;verticalAlign=top;strokeWidth=1;align=center;outlineConnect=0;dashed=0;outlineConnect=0;shape=mxgraph.aws3d.reference2;fillColor=#000000;strokeColor=none;aspect=fixed;fontSize=10;" vertex="1" parent="W2QS1BdF9j7jTlORDMmj-6">
                    <mxGeometry x="2" y="8.530000000000015" width="10.227272727272727" height="6.763636363636365" as="geometry"/>
                </mxCell>
                <mxCell id="W2QS1BdF9j7jTlORDMmj-9" value="" style="rounded=0;whiteSpace=wrap;html=1;dashed=1;dashPattern=1 1;" vertex="1" parent="W2QS1BdF9j7jTlORDMmj-1">
                    <mxGeometry x="230" y="395" width="180" height="85" as="geometry"/>
                </mxCell>
                <mxCell id="W2QS1BdF9j7jTlORDMmj-10" value="" style="rounded=0;whiteSpace=wrap;html=1;" vertex="1" parent="W2QS1BdF9j7jTlORDMmj-1">
                    <mxGeometry x="240" y="420" width="160" height="50" as="geometry"/>
                </mxCell>
                <mxCell id="W2QS1BdF9j7jTlORDMmj-11" value="forwardRef()" style="text;html=1;strokeColor=none;fillColor=none;align=center;verticalAlign=middle;whiteSpace=wrap;rounded=0;fontSize=10;" vertex="1" parent="W2QS1BdF9j7jTlORDMmj-1">
                    <mxGeometry x="228" y="390" width="71" height="30" as="geometry"/>
                </mxCell>
                <mxCell id="W2QS1BdF9j7jTlORDMmj-12" value="useImperativeHandle(&lt;br&gt;ref, &lt;font color=&quot;#cc6600&quot;&gt;getRefValue&lt;/font&gt;, []&lt;span style=&quot;background-color: initial; text-align: left;&quot;&gt;)&lt;/span&gt;" style="text;html=1;strokeColor=none;fillColor=none;align=center;verticalAlign=middle;whiteSpace=wrap;rounded=0;fontSize=8;" vertex="1" parent="W2QS1BdF9j7jTlORDMmj-1">
                    <mxGeometry x="271.25" y="430" width="97.5" height="30" as="geometry"/>
                </mxCell>
                <mxCell id="W2QS1BdF9j7jTlORDMmj-13" value="" style="edgeStyle=segmentEdgeStyle;endArrow=classic;html=1;curved=0;rounded=0;endSize=8;startSize=8;fontSize=10;exitX=1;exitY=0.5;exitDx=0;exitDy=0;fillColor=#ffe6cc;strokeColor=#d79b00;" edge="1" parent="W2QS1BdF9j7jTlORDMmj-1" source="W2QS1BdF9j7jTlORDMmj-7" target="W2QS1BdF9j7jTlORDMmj-12">
                    <mxGeometry width="50" height="50" relative="1" as="geometry">
                        <mxPoint x="414" y="300" as="sourcePoint"/>
                        <mxPoint x="460" y="450" as="targetPoint"/>
                        <Array as="points">
                            <mxPoint x="430" y="299"/>
                            <mxPoint x="430" y="445"/>
                        </Array>
                    </mxGeometry>
                </mxCell>
                <mxCell id="W2QS1BdF9j7jTlORDMmj-14" value="&lt;font color=&quot;#cc6600&quot;&gt;forwarded&lt;/font&gt;" style="edgeLabel;html=1;align=center;verticalAlign=middle;resizable=0;points=[];fontSize=10;" vertex="1" connectable="0" parent="W2QS1BdF9j7jTlORDMmj-13">
                    <mxGeometry x="-0.0443" relative="1" as="geometry">
                        <mxPoint y="8" as="offset"/>
                    </mxGeometry>
                </mxCell>
                <mxCell id="W2QS1BdF9j7jTlORDMmj-15" value="&amp;lt;Parent /&amp;gt;" style="text;html=1;align=center;verticalAlign=middle;whiteSpace=wrap;rounded=0;strokeWidth=1;fontSize=10;labelBackgroundColor=default;" vertex="1" parent="W2QS1BdF9j7jTlORDMmj-1">
                    <mxGeometry x="239" y="269" width="60" height="20" as="geometry"/>
                </mxCell>
                <mxCell id="W2QS1BdF9j7jTlORDMmj-16" value="&amp;lt;Child /&amp;gt;" style="text;html=1;align=center;verticalAlign=middle;whiteSpace=wrap;rounded=0;strokeWidth=1;fontSize=10;labelBackgroundColor=default;" vertex="1" parent="W2QS1BdF9j7jTlORDMmj-1">
                    <mxGeometry x="235" y="409" width="60" height="20" as="geometry"/>
                </mxCell>
            </root>
        </mxGraphModel>
    </diagram>
</mxfile>